# xmcd
#
# Track frame offsets:
#	192
#	16580
#	33360
#	44780
#	57440
#	70692
#	81647
#	91017
#	101070
#	112482
#	123875
#	134592
#	147217
#	162095
#	173577
#	191090
#
# Disc length: 2702
#
# Revision: 3
# Processed by: cddbd v1.5.1PL0 Copyright (c) Steve Scherf et al.
# Submitted via: EasyCD 2.21 - (C) 1996 Greg Leichner
# Normalized: r1:TDELIM( - ),TSWAP
#
DISCID=e10a8c10
DTITLE=Various Artist - Country friends - Disk 2
DYEAR=1900
DGENRE=
TTITLE0=Charlie Daniels - The Devil Went Down to Georgia
TTITLE1=Johnny Cash - A Boy Named Sue
TTITLE2=Marty Robbins - A White Sports Coat
TTITLE3=Hank Snow - I've Been Everywhere
TTITLE4=Hank Locklin - Please Help Me, I'm Falling
TTITLE5=Faron Young - Hello Walls
TTITLE6=Burl Ives - A Little Bitty Tear
TTITLE7=Bill Anderson - Happiness
TTITLE8=Don Gibson - Oh Lonesome Me
TTITLE9=Sonny James - Young Love
TTITLE10=Webb Pierce - More and More
TTITLE11=Ernest Tubbs and His Texas Troubadours - I Love You Because
TTITLE12=Slim Whitman - Indian Love Call
TTITLE13=Johnny Horton - The Battle of New Orleans
TTITLE14=Wink Martindale - Deck of Cards
TTITLE15=Tennessee Ernie Ford - Sixteen Tons
EXTD=
EXTT0=
EXTT1=
EXTT2=
EXTT3=
EXTT4=
EXTT5=
EXTT6=
EXTT7=
EXTT8=
EXTT9=
EXTT10=
EXTT11=
EXTT12=
EXTT13=
EXTT14=
EXTT15=
PLAYORDER=
